# xmcd
# 
# Track frame offsets:
#   150
#   19584
#   32823
#   47604
#   63973
#   79451
#   94292
#   112516
#   130024
#   143284
#   161131
#   175826
#   190443
#   206159
# 
# Disc length: 2967 seconds
# 
# Revision: 0
# Processed by: cddbd v1.5.1PL2 Copyright (c) Steve Scherf et al.
# Submitted via: Synapstar 1.0 
# 
DISCID=b60b950e
DTITLE=Various Artist - SD- Country Hits
DYEAR=1900
DGENRE=Country
TTITLE0=Martina McBride - Where Would you Be
TTITLE1=Brooks and Dunn - My Heart Is lost To You
TTITLE2=Jo Dee Messina - Dare To Dream
TTITLE3=Diamond Rio - Beautiful Mess
TTITLE4=Marie Sisters - Real Bad Mood
TTITLE5=Chris Cagle - Country By The grace Of God
TTITLE6=Kenny Rogers - Harder Cards
TTITLE7=Joe Nichols - The Impossible
TTITLE8=Hometown News - Minivan
TTITLE9=Gabbie Nolen - Almost There
TTITLE10=PinMonkey - Babbed Wire And Roses
TTITLE11=Sixwire - Look At Me Now
TTITLE12=Anthony Smith - If That Ain't Country
TTITLE13=Aaron Tippin - I'll Take Love Over Money
EXTD=MediaType: Karaoke CD+G Producer: StarDisc
EXTT0=
EXTT1=
EXTT2=
EXTT3=
EXTT4=
EXTT5=
EXTT6=
EXTT7=
EXTT8=
EXTT9=
EXTT10=
EXTT11=
EXTT12=
EXTT13=
PLAYORDER=
